<svg xmlns="http://www.w3.org/2000/svg" xmlns:xlink="http://www.w3.org/1999/xlink" width="719" zoomAndPan="magnify" viewBox="0 0 539.25 169.5" height="226" preserveAspectRatio="xMidYMid meet" version="1.0"><defs><g/><clipPath id="3ebe266a4f"><path d="M 0.417969 30.066406 L 108 30.066406 L 108 137.746094 L 0.417969 137.746094 Z M 0.417969 30.066406 " clip-rule="nonzero"/></clipPath></defs><g fill="#000000" fill-opacity="1"><g transform="translate(127.269575, 116.838473)"><g><path d="M 9.375 -46.59375 L 8.21875 -50.0625 C 6.78125 -54.53125 5.914062 -57.414062 5.625 -58.71875 L 0.625 -58.546875 L 0.625 -62.46875 L 22.3125 -62.46875 L 22.3125 -59.53125 C 19.875 -59.40625 18.148438 -59 17.140625 -58.3125 C 16.128906 -57.632812 15.625 -56.523438 15.625 -54.984375 C 15.625 -53.554688 15.921875 -51.828125 16.515625 -49.796875 C 17.585938 -45.816406 19.015625 -41.351562 20.796875 -36.40625 C 21.085938 -35.519531 21.441406 -34.46875 21.859375 -33.25 C 22.273438 -32.03125 22.753906 -30.613281 23.296875 -29 C 23.648438 -27.75 24.09375 -26.378906 24.625 -24.890625 C 25.164062 -23.410156 25.554688 -22.34375 25.796875 -21.6875 C 26.984375 -18.476562 27.875 -15.921875 28.46875 -14.015625 L 28.65625 -14.015625 C 29.84375 -18.054688 31.0625 -21.984375 32.3125 -25.796875 C 34.445312 -32.691406 36.796875 -39.976562 39.359375 -47.65625 C 42.035156 -55.6875 43.640625 -60.6875 44.171875 -62.65625 L 47.03125 -62.65625 C 47.75 -60.21875 48.96875 -56.394531 50.6875 -51.1875 C 52.414062 -45.976562 53.664062 -42.210938 54.4375 -39.890625 C 56.226562 -34.773438 57.453125 -31.144531 58.109375 -29 C 58.578125 -27.394531 59.347656 -24.988281 60.421875 -21.78125 C 61.609375 -18.320312 62.5625 -15.375 63.28125 -12.9375 L 63.546875 -12.9375 C 64.972656 -17.582031 66.191406 -21.421875 67.203125 -24.453125 C 70.234375 -33.078125 72.703125 -40.515625 74.609375 -46.765625 C 75.265625 -48.960938 75.859375 -50.804688 76.390625 -52.296875 C 77.523438 -55.335938 78.453125 -57.507812 79.171875 -58.8125 L 72.03125 -58.546875 L 72.03125 -62.46875 L 90.140625 -62.46875 L 90.140625 -59.53125 C 87.992188 -59.289062 86.367188 -58.84375 85.265625 -58.1875 C 84.171875 -57.53125 83.191406 -56.351562 82.328125 -54.65625 C 81.472656 -52.96875 80.390625 -50.191406 79.078125 -46.328125 L 74.53125 -32.75 C 69.769531 -18.289062 65.929688 -7.078125 63.015625 0.890625 L 60.328125 0.890625 L 43.640625 -46.859375 L 27.9375 0.890625 L 25.34375 0.890625 Z M 9.375 -46.59375 "/></g></g></g><g fill="#000000" fill-opacity="1"><g transform="translate(216.079616, 116.838473)"><g><path d="M 4.90625 -2.9375 C 6.988281 -3 8.472656 -3.476562 9.359375 -4.375 C 10.253906 -5.269531 10.757812 -6.328125 10.875 -7.546875 C 11 -8.765625 11.0625 -10.890625 11.0625 -13.921875 L 11.0625 -52.484375 C 11.0625 -54.984375 11.148438 -57.125 11.328125 -58.90625 L 4.90625 -58.546875 L 4.90625 -62.46875 C 13.238281 -62.59375 19.875 -62.65625 24.8125 -62.65625 C 33.675781 -62.65625 40.382812 -61.109375 44.9375 -58.015625 C 49.488281 -54.921875 51.765625 -50.367188 51.765625 -44.359375 C 51.765625 -40.910156 50.859375 -37.609375 49.046875 -34.453125 C 47.234375 -31.296875 44.109375 -28.675781 39.671875 -26.59375 C 35.234375 -24.507812 29.359375 -23.46875 22.046875 -23.46875 C 20.671875 -23.46875 19.597656 -23.5 18.828125 -23.5625 L 18.828125 -10.625 C 18.828125 -7.46875 18.738281 -5.113281 18.5625 -3.5625 L 26.78125 -4.015625 L 26.78125 0 L 4.90625 0 Z M 24.640625 -26.953125 C 28.023438 -26.953125 31.128906 -27.617188 33.953125 -28.953125 C 36.785156 -30.296875 39.019531 -32.234375 40.65625 -34.765625 C 42.289062 -37.296875 43.109375 -40.253906 43.109375 -43.640625 C 43.109375 -48.992188 41.472656 -52.921875 38.203125 -55.421875 C 34.929688 -57.921875 30.410156 -59.171875 24.640625 -59.171875 C 22.609375 -59.171875 21.191406 -58.753906 20.390625 -57.921875 C 19.585938 -57.085938 19.125 -56.085938 19 -54.921875 C 18.882812 -53.765625 18.828125 -51.640625 18.828125 -48.546875 L 18.828125 -27.21875 C 20.316406 -27.039062 22.253906 -26.953125 24.640625 -26.953125 Z M 24.640625 -26.953125 "/></g></g></g><g fill="#000000" fill-opacity="1"><g transform="translate(270.168944, 116.838473)"><g/></g></g><g fill="#000000" fill-opacity="1"><g transform="translate(293.643353, 116.838473)"><g><path d="M 4.90625 -2.9375 C 6.988281 -3 8.472656 -3.476562 9.359375 -4.375 C 10.253906 -5.269531 10.757812 -6.328125 10.875 -7.546875 C 11 -8.765625 11.0625 -10.890625 11.0625 -13.921875 L 11.0625 -52.484375 C 11.0625 -54.984375 11.148438 -57.125 11.328125 -58.90625 L 4.90625 -58.546875 L 4.90625 -62.46875 L 46.328125 -62.46875 L 46.765625 -46.859375 L 43.828125 -46.859375 C 43.828125 -51.734375 42.722656 -55.0625 40.515625 -56.84375 C 38.316406 -58.632812 35.3125 -59.46875 31.5 -59.34375 L 24.984375 -59.171875 C 22.898438 -59.109375 21.425781 -58.628906 20.5625 -57.734375 C 19.707031 -56.847656 19.203125 -55.765625 19.046875 -54.484375 C 18.898438 -53.203125 18.828125 -51.101562 18.828125 -48.1875 L 18.828125 -32.84375 L 34.359375 -32.75 L 33.734375 -40.515625 L 37.65625 -40.515625 L 37.65625 -21.6875 L 34.8125 -21.6875 C 34.8125 -23.945312 34.554688 -25.640625 34.046875 -26.765625 C 33.546875 -27.898438 32.757812 -28.675781 31.6875 -29.09375 C 30.613281 -29.507812 29.125 -29.71875 27.21875 -29.71875 C 25.90625 -29.71875 24.894531 -29.6875 24.1875 -29.625 L 18.828125 -29.359375 L 18.828125 -10.625 C 18.828125 -7.46875 18.738281 -5.113281 18.5625 -3.5625 L 27.671875 -3.921875 L 27.671875 0 L 4.90625 0 Z M 4.90625 -2.9375 "/></g></g></g><g fill="#000000" fill-opacity="1"><g transform="translate(338.985535, 116.838473)"><g><path d="M 16.421875 1.421875 C 12.078125 1.421875 8.757812 0.441406 6.46875 -1.515625 C 4.175781 -3.484375 3.03125 -6.039062 3.03125 -9.1875 C 3.03125 -12.644531 4.410156 -15.5625 7.171875 -17.9375 C 9.941406 -20.320312 13.425781 -22.09375 17.625 -23.25 C 21.820312 -24.40625 26.03125 -24.957031 30.25 -24.90625 L 30.25 -30.4375 C 30.25 -34.300781 29.679688 -37.316406 28.546875 -39.484375 C 27.421875 -41.660156 25.015625 -42.75 21.328125 -42.75 C 19.484375 -42.75 17.726562 -42.363281 16.0625 -41.59375 C 14.394531 -40.820312 13.175781 -39.660156 12.40625 -38.109375 C 13.175781 -37.273438 13.5625 -36.144531 13.5625 -34.71875 C 13.5625 -33.820312 13.234375 -32.972656 12.578125 -32.171875 C 11.929688 -31.367188 10.984375 -30.96875 9.734375 -30.96875 C 8.484375 -30.96875 7.5 -31.367188 6.78125 -32.171875 C 6.070312 -32.972656 5.71875 -34.03125 5.71875 -35.34375 C 5.71875 -37.300781 6.472656 -39.097656 7.984375 -40.734375 C 9.503906 -42.378906 11.617188 -43.675781 14.328125 -44.625 C 17.035156 -45.570312 20.054688 -46.046875 23.390625 -46.046875 C 28.378906 -46.046875 32.0625 -44.722656 34.4375 -42.078125 C 36.820312 -39.429688 37.988281 -35.253906 37.9375 -29.546875 L 37.84375 -9.453125 C 37.84375 -7.554688 37.722656 -5.535156 37.484375 -3.390625 L 43.828125 -3.75 L 43.828125 0 L 31.0625 0 C 30.882812 -0.894531 30.675781 -2.59375 30.4375 -5.09375 C 26.09375 -0.75 21.421875 1.421875 16.421875 1.421875 Z M 18.46875 -3.65625 C 20.726562 -3.65625 22.78125 -4.085938 24.625 -4.953125 C 26.476562 -5.816406 28.351562 -7.140625 30.25 -8.921875 C 30.195312 -9.816406 30.171875 -11.335938 30.171875 -13.484375 L 30.25 -21.859375 C 25.375 -21.679688 21.03125 -20.6875 17.21875 -18.875 C 13.414062 -17.0625 11.515625 -14.28125 11.515625 -10.53125 C 11.515625 -8.332031 12.164062 -6.632812 13.46875 -5.4375 C 14.78125 -4.25 16.445312 -3.65625 18.46875 -3.65625 Z M 18.46875 -3.65625 "/></g></g></g><g fill="#000000" fill-opacity="1"><g transform="translate(385.041805, 116.838473)"><g><path d="M 25.703125 1.421875 C 21.660156 1.421875 17.957031 0.5 14.59375 -1.34375 C 11.226562 -3.1875 8.5625 -5.832031 6.59375 -9.28125 C 4.632812 -12.726562 3.65625 -16.804688 3.65625 -21.515625 C 3.65625 -25.671875 4.648438 -29.640625 6.640625 -33.421875 C 8.640625 -37.203125 11.410156 -40.25 14.953125 -42.5625 C 18.492188 -44.882812 22.492188 -46.046875 26.953125 -46.046875 C 30.160156 -46.046875 33.015625 -45.539062 35.515625 -44.53125 C 38.015625 -43.519531 39.960938 -42.179688 41.359375 -40.515625 C 42.765625 -38.847656 43.46875 -37.035156 43.46875 -35.078125 C 43.46875 -33.703125 43.078125 -32.566406 42.296875 -31.671875 C 41.523438 -30.785156 40.457031 -30.34375 39.09375 -30.34375 C 37.78125 -30.34375 36.796875 -30.773438 36.140625 -31.640625 C 35.492188 -32.503906 35.171875 -33.410156 35.171875 -34.359375 C 35.171875 -35.847656 35.613281 -37.039062 36.5 -37.9375 C 35.84375 -39.78125 34.578125 -41.039062 32.703125 -41.71875 C 30.835938 -42.40625 28.976562 -42.75 27.125 -42.75 C 24.394531 -42.75 21.941406 -42.003906 19.765625 -40.515625 C 17.597656 -39.023438 15.890625 -36.851562 14.640625 -34 C 13.390625 -31.144531 12.765625 -27.722656 12.765625 -23.734375 C 12.765625 -19.753906 13.398438 -16.21875 14.671875 -13.125 C 15.953125 -10.03125 17.753906 -7.601562 20.078125 -5.84375 C 22.398438 -4.09375 25.078125 -3.21875 28.109375 -3.21875 C 30.785156 -3.21875 33.414062 -3.945312 36 -5.40625 C 38.59375 -6.863281 40.632812 -8.691406 42.125 -10.890625 L 44.453125 -9.109375 C 42.242188 -5.648438 39.398438 -3.03125 35.921875 -1.25 C 32.441406 0.53125 29.035156 1.421875 25.703125 1.421875 Z M 25.703125 1.421875 "/></g></g></g><g fill="#000000" fill-opacity="1"><g transform="translate(432.526159, 116.838473)"><g><path d="M 12.765625 -54.359375 C 11.515625 -54.359375 10.410156 -54.878906 9.453125 -55.921875 C 8.503906 -56.960938 8.03125 -58.195312 8.03125 -59.625 C 8.03125 -61.050781 8.519531 -62.296875 9.5 -63.359375 C 10.488281 -64.429688 11.609375 -64.96875 12.859375 -64.96875 C 14.222656 -64.96875 15.363281 -64.445312 16.28125 -63.40625 C 17.207031 -62.363281 17.671875 -61.101562 17.671875 -59.625 C 17.671875 -58.195312 17.175781 -56.960938 16.1875 -55.921875 C 15.207031 -54.878906 14.066406 -54.359375 12.765625 -54.359375 Z M 3.921875 -2.671875 C 5.648438 -2.671875 6.882812 -3.101562 7.625 -3.96875 C 8.375 -4.832031 8.820312 -5.929688 8.96875 -7.265625 C 9.113281 -8.609375 9.1875 -10.707031 9.1875 -13.5625 L 9.1875 -33.921875 C 9.1875 -35.640625 9.304688 -37.570312 9.546875 -39.71875 L 3.21875 -39.359375 L 3.21875 -43.109375 C 6.726562 -43.109375 9.238281 -43.316406 10.75 -43.734375 C 12.269531 -44.148438 13.445312 -44.742188 14.28125 -45.515625 L 16.875 -45.515625 L 16.875 -9.453125 C 16.875 -6.773438 16.753906 -4.753906 16.515625 -3.390625 L 22.140625 -3.65625 L 22.140625 0 L 3.921875 0 Z M 3.921875 -2.671875 "/></g></g></g><g fill="#000000" fill-opacity="1"><g transform="translate(457.607202, 116.838473)"><g><path d="M 3.03125 -2.671875 C 4.757812 -2.671875 5.992188 -3.101562 6.734375 -3.96875 C 7.484375 -4.832031 7.929688 -5.929688 8.078125 -7.265625 C 8.222656 -8.609375 8.296875 -10.707031 8.296875 -13.5625 L 8.296875 -55.78125 C 8.296875 -58.039062 8.382812 -59.972656 8.5625 -61.578125 L 2.234375 -61.21875 L 2.234375 -64.96875 C 5.804688 -64.96875 8.347656 -65.175781 9.859375 -65.59375 C 11.378906 -66.007812 12.554688 -66.609375 13.390625 -67.390625 L 15.96875 -67.390625 L 16.0625 -9.453125 C 16.0625 -7.140625 15.914062 -5.117188 15.625 -3.390625 L 21.234375 -3.65625 L 21.234375 0 L 3.03125 0 Z M 3.03125 -2.671875 "/></g></g></g><g clip-path="url(#3ebe266a4f)"><path fill="#ff7648" d="M 0.417969 30.066406 L 107.75 30.066406 L 107.75 137.816406 L 0.417969 137.816406 Z M 0.417969 30.066406 " fill-opacity="1" fill-rule="nonzero"/></g><path fill="#000000" d="M 53.667969 105.78125 L 88.199219 105.78125 L 88.199219 117.847656 L 53.667969 117.847656 Z M 53.667969 105.78125 " fill-opacity="1" fill-rule="nonzero"/></svg>